Optional Sub in .srt : Greek, Swe, Brazillian/Portuguese, Croatian, Dutch, French



General
Complete name                    : Did You Hear About the Morgans.avi
Format                           : AVI
Format/Info                      : Audio Video Interleave
File size                        : 707 MiB
Duration                         : 1h 43mn
Overall bit rate                 : 955 Kbps

Video
ID                               : 0
Format                           : MPEG-4 Visual
Codec ID/Hint                    : XviD
Duration                         : 1h 43mn
Bit rate                         : 496 Kbps
Width                            : 720 pixels
Height                           : 362 pixels
Display aspect ratio             : 2.35:1
Resolution                       : 8 bits
Colorimetry                      : 4:2:0
Scan type                        : Progressive
Bits/(Pixel*Frame)               : 0.076
Stream size                      : 367 MiB (52%)
Writing library                  : XviD 1.1.2 (UTC 2006-11-01)

Audio
ID                               : 1
Format                           : AC-3
Duration                         : 1h 43mn
Bit rate mode                    : Constant
Bit rate                         : 448 Kbps
Channel(s)                       : 6 channels
Channel positions                : Front: L C R, Side: L R, LFE
Sampling rate                    : 48.0 KHz
Stream size                      : 332 MiB (47%)


General
Complete name                    : Did You Hear About the Morgans .Greek.srt
File size                        : 149 KiB

General
Complete name                    : Did You Hear About the Morgans Swe.srt
File size                        : 90.9 KiB

General
Complete name       : Did You Hear About The Morgans.Brazillian/Portuguese.srt
File size                        : 113 KiB

General
Complete name                    : Did You Hear About The Morgans.Croatian.srt
File size                        : 101 KiB

General
Complete name                    : Did You Hear About the Morgans.Dutch.srt
File size                        : 104 KiB

General
Complete name                    : Did You Hear About The Morgans.French.srt
File size                        : 101 KiB

